<?xml version="1.0" encoding="UTF-8"?>
<!-- Generated by jsxcad -->
<!DOCTYPE svg PUBLIC "-//W3C//DTD SVG 1.1 Tiny//EN" "http://www.w3.org/Graphics/SVG/1.1/DTD/svg11-tiny.dtd">
<svg baseProfile="tiny" height="1618.000000000001mm" width="589.8904379073659mm" viewBox="-294.94521895368297 -618.0000000000005 589.8904379073659 1618.000000000001" version="1.1" stroke="black" stroke-width=".1" fill="none" xmlns="http://www.w3.org/2000/svg">
<path fill="#a52a2a" stroke="#a52a2a" d="M182.07911690817758 0 L2.079116908177596 0 L2.4999999999999996 -999.9999999999999 z"/>
<path fill="#a52a2a" stroke="#a52a2a" d="M293.6602540378443 599.9999999999999 L188.66025403784437 0 L294.9452189536827 599.9999999999999 z"/>
<path fill="#a52a2a" stroke="#a52a2a" d="M2.079116908177596 5.467799275500043e-34 L-2.0791169081775887 6.820763472438086e-34 L2.4999999999999996 -999.9999999999999 z"/>
<path fill="#a52a2a" stroke="#a52a2a" d="M242.43144825477395 0 L244.51056516295154 0 L2.5000000000000004 -999.9999999999999 z"/>
<path fill="#a52a2a" stroke="#a52a2a" d="M289.06736643075794 618 L289.06736643075794 600 L284.99999999999994 600 L284.99999999999994 618 z"/>
<path fill="#a52a2a" stroke="#a52a2a" d="M189.9452189536827 0 L188.66025403784437 0 L2.5000000000000124 -999.9999999999999 z"/>
<path fill="#a52a2a" stroke="#a52a2a" d="M189.9452189536827 0 L294.9452189536827 599.9999999999999 L188.66025403784437 0 z"/>
<path fill="#a52a2a" stroke="#a52a2a" d="M289.06736643075794 599.9999999999999 L239.06736643075797 0 L2.4999999999999987 -999.9999999999999 z"/>
<path fill="#a52a2a" stroke="#a52a2a" d="M244.51056516295154 0 L242.43144825477395 0 L292.43144825477395 599.9999999999999 L294.51056516295154 599.9999999999999 z"/>
<path fill="#a52a2a" stroke="#a52a2a" d="M244.51056516295154 -2.8751993409760036e-17 L244.94521895368274 4.051058737726471e-16 L2.5000000000000138 -999.9999999999999 z"/>
<path fill="#a52a2a" stroke="#a52a2a" d="M289.06736643075794 618 L292.4314482547739 618 L292.4314482547739 600 L289.06736643075794 600 z"/>
<path fill="#a52a2a" stroke="#a52a2a" d="M-294.94521895368274 618 L-294.51056516295154 618 L-294.51056516295154 600 L-294.94521895368274 600 z"/>
<path fill="#a52a2a" stroke="#a52a2a" d="M-244.51056516295154 7.927473036374057e-16 L-2.5000000000000138 -999.9999999999999 L-244.94521895368274 5.059092822248455e-16 z"/>
<path fill="#a52a2a" stroke="#a52a2a" d="M-244.51056516295154 0 L-242.43144825477395 0 L-2.5000000000000266 -999.9999999999999 z"/>
<path fill="#a52a2a" stroke="#a52a2a" d="M-205.8778525229247 599.9999999999999 L-185.87785252292468 0 L-2.499999999999999 -999.9999999999999 z"/>
<path fill="#a52a2a" stroke="#a52a2a" d="M-292.4314482547739 618 L-289.06736643075794 618 L-289.06736643075794 600 L-292.4314482547739 600 z"/>
<path fill="#a52a2a" stroke="#a52a2a" d="M188.66025403784437 0 L185.8778525229247 0 L2.500000000000015 -999.9999999999999 z"/>
<path fill="#a52a2a" stroke="#a52a2a" d="M-289.06736643075794 600 L-289.06736643075794 618 L-284.99999999999994 618 L-284.99999999999994 600 z"/>
<path fill="#a52a2a" stroke="#a52a2a" d="M244.94521895368274 0 L244.51056516295154 0 L294.51056516295154 599.9999999999999 L294.94521895368274 599.9999999999999 z"/>
<path fill="#a52a2a" stroke="#a52a2a" d="M242.43144825477393 0 L239.06736643075797 0 L289.06736643075794 599.9999999999999 L292.43144825477384 599.9999999999999 z"/>
<path fill="#a52a2a" stroke="#a52a2a" d="M182.07911690817758 618 L2.079116908177596 618 L2.079116908177596 0 L182.07911690817758 0 z"/>
<path fill="#a52a2a" stroke="#a52a2a" d="M242.4314482547739 0 L2.499999999999993 -999.9999999999999 L239.06736643075794 0 z"/>
<path fill="#a52a2a" stroke="#a52a2a" d="M2.079116908177596 618 L-2.0791169081775887 618 L-2.0791169081775887 0 L2.079116908177596 0 z"/>
<path fill="#a52a2a" stroke="#a52a2a" d="M-289.06736643075794 599.9999999999999 L-2.4999999999999987 -999.9999999999999 L-239.06736643075797 0 z"/>
<path fill="#a52a2a" stroke="#a52a2a" d="M-284.99999999999994 599.9999999999999 L6.123233995736765e-16 0 L-2.4999999999999996 -999.9999999999999 z"/>
<path fill="#a52a2a" stroke="#a52a2a" d="M6.123233995736765e-16 0 L284.99999999999994 599.9999999999999 L2.5 -999.9999999999999 z"/>
<path fill="#a52a2a" stroke="#a52a2a" d="M-293.6602540378443 599.9999999999999 L-294.9452189536827 599.9999999999999 L-188.66025403784434 0 z"/>
<path fill="#a52a2a" stroke="#a52a2a" d="M-189.9452189536827 0 L-244.9452189536827 0 L-2.5000000000000258 -999.9999999999998 z"/>
<path fill="#a52a2a" stroke="#a52a2a" d="M-189.9452189536827 0 L-294.9452189536827 599.9999999999999 L-244.9452189536827 0 z"/>
<path fill="#a52a2a" stroke="#a52a2a" d="M294.51056516295154 618 L294.51056516295154 600 L292.43144825477395 600 L292.43144825477395 618 z"/>
<path fill="#a52a2a" stroke="#a52a2a" d="M-205.87785252292468 599.9999999999999 L-2.499999999999999 -999.9999999999999 L-202.07911690817753 599.9999999999999 z"/>
<path fill="#a52a2a" stroke="#a52a2a" d="M182.07911690817758 0 L2.499999999999999 -999.9999999999999 L185.8778525229247 0 z"/>
<path fill="#a52a2a" stroke="#a52a2a" d="M185.87785252292468 618 L182.07911690817758 618 L182.07911690817758 0 L185.87785252292468 0 z"/>
<path fill="#a52a2a" stroke="#a52a2a" d="M-294.51056516295154 600 L-294.51056516295154 618 L-292.43144825477395 618 L-292.43144825477395 600 z"/>
<path fill="#a52a2a" stroke="#a52a2a" d="M-242.4314482547739 0 L-239.06736643075794 0 L-2.499999999999993 -999.9999999999999 z"/>
<path fill="#a52a2a" stroke="#a52a2a" d="M-293.6602540378443 600 L-293.6602540378443 618 L-294.9452189536827 618 L-294.9452189536827 600 z"/>
<path fill="#a52a2a" stroke="#a52a2a" d="M-293.6602540378443 599.9999999999999 L-188.66025403784434 0 L-208.66025403784434 599.9999999999999 z"/>
<path fill="#a52a2a" stroke="#a52a2a" d="M-185.8778525229247 0 L-188.66025403784434 0 L-2.5000000000000098 -999.9999999999999 z"/>
<path fill="#a52a2a" stroke="#a52a2a" d="M-185.8778525229247 0 L-205.8778525229247 599.9999999999999 L-208.66025403784434 599.9999999999999 L-188.66025403784434 0 z"/>
<path fill="#a52a2a" stroke="#a52a2a" d="M-208.66025403784434 600 L-208.66025403784434 618 L-293.6602540378443 618 L-293.6602540378443 600 z"/>
<path fill="#a52a2a" stroke="#a52a2a" d="M-205.8778525229247 600 L-202.07911690817755 600 L-202.07911690817755 618 L-205.8778525229247 618 z"/>
<path fill="#a52a2a" stroke="#a52a2a" d="M-208.66025403784434 618 L-208.66025403784434 600 L-205.8778525229247 600 L-205.8778525229247 618 z"/>
<path fill="#a52a2a" stroke="#a52a2a" d="M-189.9452189536827 0 L-2.5000000000000115 -999.9999999999999 L-188.66025403784434 0 z"/>
<path fill="#a52a2a" stroke="#a52a2a" d="M-242.43144825477395 0 L-244.51056516295154 0 L-294.51056516295154 599.9999999999999 L-292.4314482547739 599.9999999999999 z"/>
<path fill="#a52a2a" stroke="#a52a2a" d="M-2.5 -1000 L-2.5 -1000 L2.5 -1000 L2.5 -1000 z"/>
<path fill="#a52a2a" stroke="#a52a2a" d="M-189.9452189536827 0 L-188.66025403784434 0 L-294.9452189536827 599.9999999999999 z"/>
<path fill="#a52a2a" stroke="#a52a2a" d="M188.66025403784437 0 L293.6602540378443 600 L293.6602540378443 618 L188.66025403784437 618 z"/>
<path fill="#a52a2a" stroke="#a52a2a" d="M189.9452189536827 0 L244.9452189536827 0 L294.9452189536827 599.9999999999999 z"/>
<path fill="#a52a2a" stroke="#a52a2a" d="M-202.07911690817753 599.9999999999999 L-2.4999999999999996 -999.9999999999999 L-2.0791169081775887 0 z"/>
<path fill="#a52a2a" stroke="#a52a2a" d="M244.94521895368274 0 L2.5000000000000155 -999.9999999999999 L2.5000000000000155 -999.9999999999999 z"/>
<path fill="#a52a2a" stroke="#a52a2a" d="M-202.07911690817755 618 L-202.07911690817755 600 L-2.0791169081775887 0 L-2.0791169081775887 618 z"/>
<path fill="#a52a2a" stroke="#a52a2a" d="M-284.99999999999994 599.9999999999999 L-2.4999999999999996 -999.9999999999999 L-289.06736643075794 599.9999999999999 z"/>
<path fill="#a52a2a" stroke="#a52a2a" d="M-292.43144825477384 599.9999999999999 L-289.06736643075794 599.9999999999999 L-239.06736643075797 0 L-242.43144825477393 0 z"/>
<path fill="#a52a2a" stroke="#a52a2a" d="M289.06736643075794 599.9999999999999 L2.4999999999999996 -999.9999999999999 L284.99999999999994 599.9999999999999 z"/>
<path fill="#a52a2a" stroke="#a52a2a" d="M284.99999999999994 600 L6.123233995736765e-16 0 L6.123233995736765e-16 618 L284.99999999999994 618 z"/>
<path fill="#a52a2a" stroke="#a52a2a" d="M6.123233995736766e-16 0 L2.5 -999.9999999999999 L-2.5 -999.9999999999999 z"/>
<path fill="#a52a2a" stroke="#a52a2a" d="M-294.51056516295154 618 L-294.94521895368274 618 L-293.66025403784437 618 L-208.66025403784437 618 L-205.87785252292474 618 L-202.07911690817758 618 L-2.079116908177589 618 L2.0791169081775966 618 L182.0791169081776 618 L185.87785252292474 618 L188.6602540378444 618 L293.66025403784437 618 L294.94521895368274 618 L294.51056516295154 618 L292.43144825477395 618 L289.067366430758 618 L285 618 L6.123233995736766e-16 618 L-285 618 L-289.067366430758 618 L-292.43144825477395 618 z"/>
<path fill="#a52a2a" stroke="#a52a2a" d="M293.6602540378443 600 L294.9452189536827 600 L294.9452189536827 618 L293.6602540378443 618 z"/>
<path fill="#a52a2a" stroke="#a52a2a" d="M189.9452189536827 0 L2.500000000000004 -999.9999999999999 L244.9452189536827 0 z"/>
<path fill="#a52a2a" stroke="#a52a2a" d="M294.51056516295154 618 L294.94521895368274 618 L294.94521895368274 600 L294.51056516295154 600 z"/>
<path fill="#a52a2a" stroke="#a52a2a" d="M-2.5000000000000155 -999.9999999999999 L-2.5000000000000155 -999.9999999999999 L-244.94521895368274 0 z"/>
<path fill="#a52a2a" stroke="#a52a2a" d="M-2.079116908177589 0 L-2.5 -999.9999999999999 L2.5 -999.9999999999999 z"/>
<path fill="#a52a2a" stroke="#a52a2a" d="M-294.51056516295154 599.9999999999999 L-244.51056516295154 0 L-244.94521895368274 0 L-294.94521895368274 599.9999999999999 z"/>
<path fill="#a52a2a" stroke="#a52a2a" d="M-284.99999999999994 600 L-284.99999999999994 618 L6.123233995736765e-16 618 L6.123233995736765e-16 0 z"/>
<path fill="#a52a2a" stroke="#a52a2a" d="M188.66025403784437 0 L188.66025403784437 618 L185.8778525229247 618 L185.8778525229247 0 z"/>
</svg>