<?xml version="1.0" encoding="UTF-8"?>
<!-- Generated by jsxcad -->
<!DOCTYPE svg PUBLIC "-//W3C//DTD SVG 1.1 Tiny//EN" "http://www.w3.org/Graphics/SVG/1.1/DTD/svg11-tiny.dtd">
<svg baseProfile="tiny" height="483.1771471504199mm" width="3205.000000000002mm" viewBox="-1605.000000000001 -201.53734838172085 3205.000000000002 483.1771471504199" version="1.1" stroke="black" stroke-width=".1" fill="none" xmlns="http://www.w3.org/2000/svg">
<path fill="#75dbf2" stroke="#75dbf2" d="M600 115.72670833128586 L300 115.049460358146 L-318 115.049460358146 L-618 115.72670833128586 z"/>
<path fill="#75dbf2" stroke="#75dbf2" d="M599.9999999999999 -76.36740471953335 L299.99999999999994 -75.67455661011388 L599.9999999999999 -73.01213511841955 z"/>
<path fill="#75dbf2" stroke="#75dbf2" d="M-1604.9999999999998 104.89763113367178 L-617.9999999999999 -73.01213511841954 L-617.9999999999999 -76.36740471953335 z"/>
<path fill="#75dbf2" stroke="#75dbf2" d="M-617.9999999999999 -76.36740471953334 L-617.9999999999999 -73.01213511841955 L-317.99999999999994 -75.67455661011388 z"/>
<path fill="#75dbf2" stroke="#75dbf2" d="M299.99999999999994 -281.6397987686988 L299.99999999999994 -280.566452317523 L599.9999999999999 -245.9335333986912 z"/>
<path fill="#75dbf2" stroke="#75dbf2" d="M1599.9999999999998 -107.08206429780027 L1599.9999999999998 -103.54399323181042 L599.9999999999999 -112.37901861252108 z"/>
<path fill="#75dbf2" stroke="#75dbf2" d="M1599.9999999999998 104.8976311336718 L599.9999999999999 -82.97345386321473 L599.9999999999999 -79.82693441391959 z"/>
<path fill="#75dbf2" stroke="#75dbf2" d="M599.9999999999999 -79.8269344139196 L599.9999999999999 -82.97345386321473 L299.99999999999994 -274.2482542108739 z"/>
<path fill="#75dbf2" stroke="#75dbf2" d="M-1604.9999999999998 104.8976311336718 L-317.99999999999994 -277.9519115123931 L-617.9999999999999 -242.01406300027057 z"/>
<path fill="#75dbf2" stroke="#75dbf2" d="M-617.9999999999999 -242.01406300027062 L-317.99999999999994 -277.9519115123932 L-617.9999999999999 -244.46805552120833 z"/>
<path fill="#75dbf2" stroke="#75dbf2" d="M599.9999999999999 -242.0140630002706 L599.9999999999999 -244.46805552120838 L299.99999999999994 -277.95191151239317 z"/>
<path fill="#75dbf2" stroke="#75dbf2" d="M-618 110.88634203894082 L-318 112.1070350078926 L300 112.1070350078926 L600 110.88634203894082 z"/>
<path fill="#75dbf2" stroke="#75dbf2" d="M1599.9999999999998 104.89763113367178 L599.9999999999999 113.73265651438244 L1599.9999999999998 108.43570219966163 z"/>
<path fill="#75dbf2" stroke="#75dbf2" d="M1599.9999999999998 108.43570219966169 L599.9999999999999 113.73265651438247 L599.9999999999999 115.72670833128585 z"/>
<path fill="#75dbf2" stroke="#75dbf2" d="M-617.9999999999999 115.7267083312859 L-317.99999999999994 115.049460358146 L-617.9999999999999 113.73265651438247 z"/>
<path fill="#75dbf2" stroke="#75dbf2" d="M-318 -281.6397987686988 L300 -281.6397987686988 L300 -280.9863595134661 L-318 -280.9863595134661 z"/>
<path fill="#75dbf2" stroke="#75dbf2" d="M599.9999999999999 -112.37901861252107 L599.9999999999999 -109.53270413707948 L299.99999999999994 124.6209813874789 z"/>
<path fill="#75dbf2" stroke="#75dbf2" d="M-318 -280.56645231752293 L300 -280.56645231752293 L300 -281.6397987686988 L-318 -281.6397987686988 z"/>
<path fill="#75dbf2" stroke="#75dbf2" d="M-318 139.46294658043294 L-318 136.2332713750196 L300 136.2332713750196 L300 139.46294658043294 z"/>
<path fill="#75dbf2" stroke="#75dbf2" d="M1599.9999999999998 104.8976311336718 L299.99999999999994 -277.95191151239317 L299.99999999999994 -274.2482542108739 z"/>
<path fill="#75dbf2" stroke="#75dbf2" d="M-1604.9999999999998 104.8976311336718 L-617.9999999999999 -79.8269344139196 L-617.9999999999999 -82.97345386321474 z"/>
<path fill="#75dbf2" stroke="#75dbf2" d="M-617.9999999999999 -82.97345386321474 L-617.9999999999999 -79.8269344139196 L-317.99999999999994 -274.2482542108738 z"/>
<path fill="#75dbf2" stroke="#75dbf2" d="M299.99999999999994 112.10703500789259 L599.9999999999999 113.73265651438244 L599.9999999999999 110.88634203894082 z"/>
<path fill="#75dbf2" stroke="#75dbf2" d="M-617.9999999999999 113.73265651438246 L-317.99999999999994 112.10703500789259 L-617.9999999999999 110.88634203894082 z"/>
<path fill="#75dbf2" stroke="#75dbf2" d="M1599.9999999999998 104.8976311336718 L599.9999999999999 -73.01213511841955 L599.9999999999999 110.88634203894084 z"/>
<path fill="#75dbf2" stroke="#75dbf2" d="M600 -73.01213511841955 L300 -75.67455661011388 L-318 -75.67455661011388 L-618 -73.01213511841955 z"/>
<path fill="#75dbf2" stroke="#75dbf2" d="M-1604.9999999999995 108.43570219966169 L-617.9999999999999 115.72670833128585 L-617.9999999999999 113.7326565143825 z"/>
<path fill="#75dbf2" stroke="#75dbf2" d="M-318 115.04946035814605 L300 115.04946035814605 L600 113.73265651438253 L-618 113.73265651438253 z"/>
<path fill="#75dbf2" stroke="#75dbf2" d="M599.9999999999999 -245.9335333986912 L299.99999999999994 -280.566452317523 L599.9999999999999 -244.46805552120836 z"/>
<path fill="#75dbf2" stroke="#75dbf2" d="M599.9999999999999 -242.0140630002707 L1599.9999999999995 104.89763113367168 L1599.9999999999995 -107.08206429780041 L599.9999999999999 -244.46805552120844 z"/>
<path fill="#75dbf2" stroke="#75dbf2" d="M1599.9999999999995 108.43570219966162 L599.9999999999999 104.50189646875498 L599.9999999999999 102.04790394781723 L1599.9999999999995 -103.54399323181039 z"/>
<path fill="#75dbf2" stroke="#75dbf2" d="M599.9999999999999 98.90138449852208 L1599.9999999999998 -103.54399323181042 L599.9999999999999 102.04790394781722 z"/>
<path fill="#75dbf2" stroke="#75dbf2" d="M1599.9999999999998 -107.08206429780027 L599.9999999999999 -112.37901861252107 L599.9999999999999 -114.37307042942447 z"/>
<path fill="#75dbf2" stroke="#75dbf2" d="M599.9999999999999 -114.37307042942447 L599.9999999999999 -112.37901861252105 L299.99999999999994 -278.7191201353637 z"/>
<path fill="#75dbf2" stroke="#75dbf2" d="M-1604.9999999999998 -103.54399323181042 L-617.9999999999999 -109.53270413707948 L-317.99999999999994 124.62098138747889 z"/>
<path fill="#75dbf2" stroke="#75dbf2" d="M-317.99999999999994 124.6209813874789 L-617.9999999999999 -109.53270413707948 L-617.9999999999999 -112.37901861252107 z"/>
<path fill="#75dbf2" stroke="#75dbf2" d="M-617.9999999999998 -112.37901861252107 L-617.9999999999998 -114.37307042942446 L-317.99999999999994 -278.7191201353637 z"/>
<path fill="#75dbf2" stroke="#75dbf2" d="M-317.99999999999994 -278.71912013536365 L-617.9999999999999 -114.37307042942447 L-1604.9999999999995 -107.08206429780027 z"/>
<path fill="#75dbf2" stroke="#75dbf2" d="M-317.99999999999994 -281.6397987686988 L-317.99999999999994 -280.9863595134661 L-617.9999999999999 -246.23373837254468 z"/>
<path fill="#75dbf2" stroke="#75dbf2" d="M-617.9999999999999 -246.23373837254465 L-317.99999999999994 -280.986359513466 L-617.9999999999999 -245.33246129236863 z"/>
<path fill="#75dbf2" stroke="#75dbf2" d="M-318 -280.56645231752304 L-318 -277.95191151239317 L300 -277.95191151239317 L300 -280.56645231752304 z"/>
<path fill="#75dbf2" stroke="#75dbf2" d="M-617.9999999999999 -244.46805552120836 L-617.9999999999999 -245.9335333986912 L-1604.9999999999998 -107.08206429780033 z"/>
<path fill="#75dbf2" stroke="#75dbf2" d="M-617.9999999999999 -245.33246129236863 L-317.99999999999994 -280.9863595134661 L-1604.9999999999998 -107.08206429780027 z"/>
<path fill="#75dbf2" stroke="#75dbf2" d="M-617.9999999999999 -246.23373837254468 L-617.9999999999999 -245.33246129236866 L-1604.9999999999995 -107.08206429780029 z"/>
<path fill="#75dbf2" stroke="#75dbf2" d="M-317.99999999999994 132.21749957359035 L-317.99999999999994 136.2332713750196 L-617.9999999999999 98.90138449852209 z"/>
<path fill="#75dbf2" stroke="#75dbf2" d="M1600 -107.08206429780027 L1600 104.8976311336718 L1600 108.43570219966165 L1600 -103.54399323181042 z"/>
<path fill="#75dbf2" stroke="#75dbf2" d="M-617.9999999999999 95.44185480413584 L-317.99999999999994 132.21749957359035 L-617.9999999999999 98.90138449852209 z"/>
<path fill="#75dbf2" stroke="#75dbf2" d="M-617.9999999999999 98.90138449852209 L-617.9999999999999 102.04790394781722 L-1604.9999999999998 -103.54399323181042 z"/>
<path fill="#75dbf2" stroke="#75dbf2" d="M-1604.9999999999998 104.89763113367165 L-617.9999999999999 -242.0140630002706 L-617.9999999999999 -244.46805552120836 L-1604.9999999999998 -107.0820642978003 z"/>
<path fill="#75dbf2" stroke="#75dbf2" d="M299.99999999999994 -274.2482542108739 L599.9999999999999 -82.97345386321473 L1599.9999999999998 104.8976311336718 z"/>
<path fill="#75dbf2" stroke="#75dbf2" d="M300 -274.2482542108739 L-318 -274.2482542108739 L-618 -79.8269344139196 L600 -79.8269344139196 z"/>
<path fill="#75dbf2" stroke="#75dbf2" d="M-1604.9999999999995 104.89763113367178 L-617.9999999999999 -82.97345386321473 L-317.99999999999994 -274.2482542108739 z"/>
<path fill="#75dbf2" stroke="#75dbf2" d="M1599.9999999999998 104.89763113367178 L599.9999999999999 -79.8269344139196 L599.9999999999999 -76.36740471953335 z"/>
<path fill="#75dbf2" stroke="#75dbf2" d="M-618 113.73265651438246 L600 113.73265651438246 L300 112.1070350078926 L-318 112.1070350078926 z"/>
<path fill="#75dbf2" stroke="#75dbf2" d="M-1604.9999999999998 104.89763113367178 L-617.9999999999999 113.73265651438246 L-617.9999999999999 110.88634203894082 z"/>
<path fill="#75dbf2" stroke="#75dbf2" d="M-617.9999999999999 110.88634203894082 L-617.9999999999999 -73.01213511841955 L-1604.9999999999998 104.8976311336718 z"/>
<path fill="#75dbf2" stroke="#75dbf2" d="M1599.9999999999998 -107.08206429780024 L299.99999999999994 -278.71912013536365 L299.99999999999994 -280.986359513466 z"/>
<path fill="#75dbf2" stroke="#75dbf2" d="M-318 -274.2482542108739 L300 -274.2482542108739 L300 -277.95191151239317 L-318 -277.95191151239317 z"/>
<path fill="#75dbf2" stroke="#75dbf2" d="M599.9999999999999 -246.2337383725447 L599.9999999999999 -245.9335333986912 L1599.9999999999998 -107.08206429780029 z"/>
<path fill="#75dbf2" stroke="#75dbf2" d="M1599.9999999999998 -103.54399323181042 L299.99999999999994 128.10999460275383 L299.99999999999994 124.62098138747889 z"/>
<path fill="#75dbf2" stroke="#75dbf2" d="M299.99999999999994 139.46294658043294 L299.99999999999994 136.2332713750196 L599.9999999999999 102.0479039478172 z"/>
<path fill="#75dbf2" stroke="#75dbf2" d="M599.9999999999999 95.44185480413584 L1599.9999999999998 -103.54399323181042 L599.9999999999999 98.90138449852209 z"/>
<path fill="#75dbf2" stroke="#75dbf2" d="M299.99999999999994 132.21749957359035 L299.99999999999994 128.10999460275383 L599.9999999999999 95.44185480413584 z"/>
<path fill="#75dbf2" stroke="#75dbf2" d="M-1604.9999999999995 -103.54399323181043 L-617.9999999999999 92.08658520302203 L-617.9999999999999 95.44185480413584 z"/>
<path fill="#75dbf2" stroke="#75dbf2" d="M-617.9999999999999 95.44185480413584 L-617.9999999999999 92.08658520302203 L-317.99999999999994 128.10999460275383 z"/>
<path fill="#75dbf2" stroke="#75dbf2" d="M300 -280.986359513466 L300 -278.71912013536365 L-318 -278.71912013536365 L-318 -280.986359513466 z"/>
<path fill="#75dbf2" stroke="#75dbf2" d="M-1604.9999999999998 -107.08206429780023 L-617.9999999999999 -114.37307042942449 L-617.9999999999999 -112.37901861252107 z"/>
<path fill="#75dbf2" stroke="#75dbf2" d="M-1604.9999999999998 -107.08206429780029 L-617.9999999999999 -245.9335333986912 L-617.9999999999999 -246.2337383725447 z"/>
<path fill="#75dbf2" stroke="#75dbf2" d="M-617.9999999999999 -246.2337383725447 L-617.9999999999999 -245.93353339869117 L-317.99999999999994 -281.6397987686988 z"/>
<path fill="#75dbf2" stroke="#75dbf2" d="M-617.9999999999999 98.90138449852209 L-317.99999999999994 136.2332713750196 L-617.9999999999999 102.04790394781722 z"/>
<path fill="#75dbf2" stroke="#75dbf2" d="M-617.9999999999999 102.04790394781722 L-317.99999999999994 136.2332713750196 L-317.99999999999994 139.46294658043294 z"/>
<path fill="#75dbf2" stroke="#75dbf2" d="M-1604.9999999999998 108.43570219966168 L-617.9999999999999 187.47062500537055 L-317.99999999999994 201.5373483817207 z"/>
<path fill="#75dbf2" stroke="#75dbf2" d="M599.9999999999999 102.04790394781723 L299.99999999999994 136.2332713750196 L599.9999999999999 98.9013844985221 z"/>
<path fill="#75dbf2" stroke="#75dbf2" d="M-318 128.10999460275383 L-318 124.62098138747889 L300 124.62098138747889 L300 128.10999460275383 z"/>
<path fill="#75dbf2" stroke="#75dbf2" d="M599.9999999999999 187.170420031517 L599.9999999999999 187.47062500537055 L299.99999999999994 201.3227042954764 z"/>
<path fill="#75dbf2" stroke="#75dbf2" d="M299.99999999999994 201.3227042954764 L599.9999999999999 187.47062500537055 L299.99999999999994 201.5373483817207 z"/>
<path fill="#75dbf2" stroke="#75dbf2" d="M-317.99999999999994 -277.9519115123932 L-317.99999999999994 -280.566452317523 L-617.9999999999999 -244.46805552120833 z"/>
<path fill="#75dbf2" stroke="#75dbf2" d="M-617.9999999999999 -245.9335333986912 L-317.99999999999994 -280.566452317523 L-317.99999999999994 -281.6397987686988 z"/>
<path fill="#75dbf2" stroke="#75dbf2" d="M-618 110.88634203894084 L600 110.88634203894084 L600 -73.01213511841954 L-618 -73.01213511841954 z"/>
<path fill="#75dbf2" stroke="#75dbf2" d="M600 -76.36740471953335 L-618 -76.36740471953335 L-318 -75.67455661011388 L300 -75.67455661011388 z"/>
<path fill="#75dbf2" stroke="#75dbf2" d="M599.9999999999999 98.90138449852209 L299.99999999999994 132.21749957359035 L599.9999999999999 95.44185480413584 z"/>
<path fill="#75dbf2" stroke="#75dbf2" d="M599.9999999999999 -114.37307042942447 L299.99999999999994 -278.71912013536365 L1599.9999999999998 -107.08206429780026 z"/>
<path fill="#75dbf2" stroke="#75dbf2" d="M-1604.9999999999998 -103.54399323181042 L-317.99999999999994 124.62098138747889 L-317.99999999999994 128.10999460275383 z"/>
<path fill="#75dbf2" stroke="#75dbf2" d="M300 -278.71912013536365 L600 -112.37901861252108 L-618 -112.37901861252108 L-318 -278.71912013536365 z"/>
<path fill="#75dbf2" stroke="#75dbf2" d="M300 132.21749957359035 L-318 132.21749957359035 L-318 128.10999460275383 L300 128.10999460275383 z"/>
<path fill="#75dbf2" stroke="#75dbf2" d="M-1605 104.8976311336718 L-1605 -107.08206429780027 L-1605 -103.54399323181042 L-1605 108.43570219966165 z"/>
<path fill="#75dbf2" stroke="#75dbf2" d="M300 136.2332713750196 L-318 136.2332713750196 L-318 132.21749957359037 L300 132.21749957359037 z"/>
<path fill="#75dbf2" stroke="#75dbf2" d="M-1604.9999999999998 108.43570219966165 L-617.9999999999999 185.70494215403414 L-617.9999999999999 187.17042003151698 z"/>
<path fill="#75dbf2" stroke="#75dbf2" d="M-617.9999999999999 187.170420031517 L-617.9999999999999 185.70494215403414 L-317.99999999999994 141.34808500613627 z"/>
<path fill="#75dbf2" stroke="#75dbf2" d="M-617.9999999999999 187.170420031517 L-617.9999999999999 187.47062500537055 L-1604.9999999999998 108.43570219966165 z"/>
<path fill="#75dbf2" stroke="#75dbf2" d="M299.99999999999994 139.46294658043297 L599.9999999999999 104.50189646875498 L1599.9999999999998 108.43570219966166 z"/>
<path fill="#75dbf2" stroke="#75dbf2" d="M599.9999999999999 -109.53270413707948 L1599.9999999999995 -103.54399323181042 L299.99999999999994 124.62098138747888 z"/>
<path fill="#75dbf2" stroke="#75dbf2" d="M299.99999999999994 136.2332713750196 L299.99999999999994 132.21749957359037 L599.9999999999999 98.90138449852209 z"/>
<path fill="#75dbf2" stroke="#75dbf2" d="M600 -112.37901861252107 L300 124.62098138747889 L-318 124.62098138747889 L-618 -112.37901861252107 z"/>
<path fill="#75dbf2" stroke="#75dbf2" d="M-1604.9999999999998 108.43570219966168 L-317.99999999999994 201.5373483817207 L-317.99999999999994 200.044384216014 z"/>
<path fill="#75dbf2" stroke="#75dbf2" d="M299.99999999999994 141.34808500613627 L599.9999999999999 185.70494215403417 L599.9999999999999 187.170420031517 z"/>
<path fill="#75dbf2" stroke="#75dbf2" d="M599.9999999999999 187.17042003151698 L599.9999999999999 185.70494215403411 L1599.9999999999998 108.43570219966166 z"/>
<path fill="#75dbf2" stroke="#75dbf2" d="M599.9999999999999 -245.9335333986912 L599.9999999999999 -244.46805552120836 L1599.9999999999998 -107.08206429780033 z"/>
<path fill="#75dbf2" stroke="#75dbf2" d="M599.9999999999999 -246.2337383725447 L299.99999999999994 -281.6397987686988 L599.9999999999999 -245.9335333986912 z"/>
<path fill="#75dbf2" stroke="#75dbf2" d="M-618 -79.82693441391959 L-618 -76.36740471953335 L600 -76.36740471953335 L600 -79.82693441391959 z"/>
<path fill="#75dbf2" stroke="#75dbf2" d="M-317.99999999999994 -274.2482542108739 L-317.99999999999994 -277.9519115123931 L-1604.9999999999998 104.89763113367178 z"/>
<path fill="#75dbf2" stroke="#75dbf2" d="M-317.99999999999994 128.10999460275383 L-617.9999999999999 92.08658520302201 L-1604.9999999999998 -103.54399323181042 z"/>
<path fill="#75dbf2" stroke="#75dbf2" d="M-317.99999999999994 128.10999460275383 L-317.99999999999994 132.21749957359035 L-617.9999999999999 95.44185480413586 z"/>
<path fill="#75dbf2" stroke="#75dbf2" d="M-1604.9999999999998 -107.08206429780024 L-317.99999999999994 -280.986359513466 L-317.99999999999994 -278.71912013536365 z"/>
<path fill="#75dbf2" stroke="#75dbf2" d="M-617.9999999999999 -244.46805552120833 L-317.99999999999994 -280.566452317523 L-617.9999999999999 -245.93353339869122 z"/>
<path fill="#75dbf2" stroke="#75dbf2" d="M-617.9999999999999 104.50189646875495 L-617.9999999999999 102.04790394781723 L-317.99999999999994 139.4629465804329 z"/>
<path fill="#75dbf2" stroke="#75dbf2" d="M-617.9999999999999 104.50189646875496 L-1604.9999999999998 108.43570219966165 L-1604.9999999999998 -103.5439932318104 L-617.9999999999999 102.04790394781722 z"/>
<path fill="#75dbf2" stroke="#75dbf2" d="M-617.9999999999999 187.47062500537055 L-317.99999999999994 201.3227042954764 L-317.99999999999994 201.5373483817207 z"/>
<path fill="#75dbf2" stroke="#75dbf2" d="M-317.99999999999994 141.34808500613627 L-617.9999999999999 185.70494215403414 L-1604.9999999999995 108.43570219966165 z"/>
<path fill="#75dbf2" stroke="#75dbf2" d="M599.9999999999999 102.0479039478172 L599.9999999999999 104.50189646875496 L299.99999999999994 139.46294658043294 z"/>
<path fill="#75dbf2" stroke="#75dbf2" d="M599.9999999999999 95.44185480413584 L299.99999999999994 128.10999460275383 L1599.9999999999998 -103.54399323181042 z"/>
<path fill="#75dbf2" stroke="#75dbf2" d="M299.99999999999994 201.5373483817207 L599.9999999999999 187.47062500537055 L1599.9999999999998 108.43570219966166 z"/>
<path fill="#75dbf2" stroke="#75dbf2" d="M-617.9999999999999 187.170420031517 L-317.99999999999994 201.3227042954764 L-617.9999999999999 187.47062500537055 z"/>
<path fill="#75dbf2" stroke="#75dbf2" d="M599.9999999999999 -76.36740471953335 L599.9999999999999 -73.01213511841955 L1599.9999999999998 104.89763113367178 z"/>
<path fill="#75dbf2" stroke="#75dbf2" d="M599.9999999999999 110.88634203894084 L599.9999999999999 113.73265651438246 L1599.9999999999998 104.89763113367178 z"/>
<path fill="#75dbf2" stroke="#75dbf2" d="M-317.99999999999994 200.044384216014 L-617.9999999999999 115.72670833128586 L-1604.9999999999995 108.43570219966166 z"/>
<path fill="#75dbf2" stroke="#75dbf2" d="M299.99999999999994 -280.9863595134661 L599.9999999999999 -246.23373837254468 L1599.9999999999998 -107.08206429780026 z"/>
<path fill="#75dbf2" stroke="#75dbf2" d="M299.99999999999994 -280.9863595134661 L299.99999999999994 -281.6397987686988 L599.9999999999999 -246.23373837254468 z"/>
<path fill="#75dbf2" stroke="#75dbf2" d="M-317.99999999999994 139.46294658043297 L-317.99999999999994 141.34808500613627 L-1604.9999999999998 108.43570219966163 z"/>
<path fill="#75dbf2" stroke="#75dbf2" d="M-318 201.5373483817207 L-318 201.3227042954764 L300 201.3227042954764 L300 201.5373483817207 z"/>
<path fill="#75dbf2" stroke="#75dbf2" d="M599.9999999999999 -112.37901861252108 L1599.9999999999998 -103.54399323181042 L599.9999999999999 -109.53270413707948 z"/>
<path fill="#75dbf2" stroke="#75dbf2" d="M-617.9999999999999 -112.37901861252107 L-617.9999999999999 -109.53270413707948 L-1604.9999999999998 -103.54399323181042 z"/>
<path fill="#75dbf2" stroke="#75dbf2" d="M300 201.32270429547637 L-318 201.32270429547637 L-318 141.34808500613627 L300 141.34808500613627 z"/>
<path fill="#75dbf2" stroke="#75dbf2" d="M599.9999999999999 115.72670833128588 L299.99999999999994 200.044384216014 L1599.9999999999995 108.43570219966168 z"/>
<path fill="#75dbf2" stroke="#75dbf2" d="M-617.9999999999999 95.44185480413584 L-617.9999999999999 98.90138449852209 L-1604.9999999999998 -103.5439932318104 z"/>
<path fill="#75dbf2" stroke="#75dbf2" d="M1599.9999999999998 108.43570219966165 L599.9999999999999 187.47062500537055 L599.9999999999999 187.170420031517 z"/>
<path fill="#75dbf2" stroke="#75dbf2" d="M299.99999999999994 200.04438421601398 L299.99999999999994 201.5373483817207 L1599.9999999999998 108.43570219966168 z"/>
<path fill="#75dbf2" stroke="#75dbf2" d="M600 115.72670833128585 L-618 115.72670833128585 L-318 200.044384216014 L300 200.044384216014 z"/>
<path fill="#75dbf2" stroke="#75dbf2" d="M599.9999999999999 -244.46805552120833 L299.99999999999994 -280.566452317523 L299.99999999999994 -277.9519115123932 z"/>
<path fill="#75dbf2" stroke="#75dbf2" d="M599.9999999999999 113.73265651438247 L299.99999999999994 115.049460358146 L599.9999999999999 115.7267083312859 z"/>
<path fill="#75dbf2" stroke="#75dbf2" d="M1599.9999999999998 108.43570219966163 L599.9999999999999 185.70494215403414 L299.99999999999994 141.34808500613627 z"/>
<path fill="#75dbf2" stroke="#75dbf2" d="M-1604.9999999999998 -103.54399323181042 L-1604.9999999999998 -107.08206429780027 L-617.9999999999999 -112.37901861252107 z"/>
<path fill="#75dbf2" stroke="#75dbf2" d="M599.9999999999999 -242.01406300027054 L299.99999999999994 -277.9519115123931 L1599.9999999999995 104.89763113367178 z"/>
<path fill="#75dbf2" stroke="#75dbf2" d="M-317.99999999999994 141.34808500613627 L-317.99999999999994 201.32270429547637 L-617.9999999999999 187.17042003151698 z"/>
<path fill="#75dbf2" stroke="#75dbf2" d="M-1604.9999999999998 108.43570219966165 L-617.9999999999999 113.73265651438244 L-1604.9999999999998 104.8976311336718 z"/>
<path fill="#75dbf2" stroke="#75dbf2" d="M300 201.53734838172073 L300 200.044384216014 L-318 200.044384216014 L-318 201.53734838172073 z"/>
<path fill="#75dbf2" stroke="#75dbf2" d="M-617.9999999999999 -76.36740471953335 L-617.9999999999999 -79.8269344139196 L-1604.9999999999998 104.89763113367178 z"/>
<path fill="#75dbf2" stroke="#75dbf2" d="M1599.9999999999998 108.43570219966163 L299.99999999999994 141.34808500613627 L299.99999999999994 139.46294658043294 z"/>
<path fill="#75dbf2" stroke="#75dbf2" d="M299.99999999999994 201.32270429547637 L299.99999999999994 141.34808500613627 L599.9999999999999 187.170420031517 z"/>
<path fill="#75dbf2" stroke="#75dbf2" d="M-1604.9999999999998 108.43570219966165 L-617.9999999999999 104.50189646875498 L-317.99999999999994 139.46294658043294 z"/>
<path fill="#75dbf2" stroke="#75dbf2" d="M300 139.46294658043294 L300 141.34808500613627 L-318 141.34808500613627 L-318 139.46294658043294 z"/>
</svg>