<?xml version="1.0" encoding="UTF-8"?>
<!-- Generated by jsxcad -->
<!DOCTYPE svg PUBLIC "-//W3C//DTD SVG 1.1 Tiny//EN" "http://www.w3.org/Graphics/SVG/1.1/DTD/svg11-tiny.dtd">
<svg baseProfile="tiny" height="1018.0000000000005mm" width="489.8904379073657mm" viewBox="-244.94521895368285 -18.000000000000014 489.8904379073657 1018.0000000000005" version="1.1" stroke="black" stroke-width=".1" fill="none" xmlns="http://www.w3.org/2000/svg">
<path fill="#a52a2a" stroke="#a52a2a" d="M-188.66025403784434 0 L-189.9452189536827 0 L-2.5000000000000115 -999.9999999999999 z"/>
<path fill="#a52a2a" stroke="#a52a2a" d="M242.43144825477395 0 L244.51056516295154 0 L2.5000000000000004 -999.9999999999999 z"/>
<path fill="#a52a2a" stroke="#a52a2a" d="M-185.8778525229247 0 L-188.66025403784434 0 L-2.5000000000000098 -999.9999999999999 z"/>
<path fill="#a52a2a" stroke="#a52a2a" d="M-188.66025403784434 0 L-188.66025403784434 18 L-189.9452189536827 18 L-189.9452189536827 0 z"/>
<path fill="#a52a2a" stroke="#a52a2a" d="M239.06736643075794 0 L242.4314482547739 0 L2.499999999999993 -999.9999999999999 z"/>
<path fill="#a52a2a" stroke="#a52a2a" d="M-239.06736643075797 0 L-4.067366430758009 0 L-2.4999999999999996 -999.9999999999999 z"/>
<path fill="#a52a2a" stroke="#a52a2a" d="M2.5000000000000138 -999.9999999999999 L244.51056516295154 -2.8751993409760036e-17 L244.94521895368274 4.051058737726471e-16 z"/>
<path fill="#a52a2a" stroke="#a52a2a" d="M-185.8778525229247 0 L-185.8778525229247 18 L-188.66025403784434 18 L-188.66025403784434 0 z"/>
<path fill="#a52a2a" stroke="#a52a2a" d="M-2.5000000000000258 -999.9999999999998 L-189.9452189536827 0 L-244.9452189536827 0 z"/>
<path fill="#a52a2a" stroke="#a52a2a" d="M244.51056516295154 18 L244.94521895368274 18 L244.94521895368274 0 L244.51056516295154 0 z"/>
<path fill="#a52a2a" stroke="#a52a2a" d="M188.66025403784437 0 L188.66025403784437 18 L185.8778525229247 18 L185.8778525229247 0 z"/>
<path fill="#a52a2a" stroke="#a52a2a" d="M-2.0791169081775887 0 L-182.07911690817755 0 L-2.499999999999999 -999.9999999999999 z"/>
<path fill="#a52a2a" stroke="#a52a2a" d="M-2.4999999999999996 -999.9999999999999 L-182.07911690817755 0 L-185.8778525229247 0 z"/>
<path fill="#a52a2a" stroke="#a52a2a" d="M-242.4314482547739 0 L-242.4314482547739 18 L-239.06736643075797 18 L-239.06736643075797 0 z"/>
<path fill="#a52a2a" stroke="#a52a2a" d="M-182.07911690817755 0 L-2.0791169081775887 0 L-2.0791169081775887 18 L-182.07911690817755 18 z"/>
<path fill="#a52a2a" stroke="#a52a2a" d="M239.06736643075797 0 L239.06736643075797 18 L242.4314482547739 18 L242.4314482547739 0 z"/>
<path fill="#a52a2a" stroke="#a52a2a" d="M-2.0791169081775887 18 L-2.0791169081775887 0 L2.079116908177596 0 L2.079116908177596 18 z"/>
<path fill="#a52a2a" stroke="#a52a2a" d="M182.07911690817758 0 L185.87785252292468 0 L185.87785252292468 18 L182.07911690817758 18 z"/>
<path fill="#a52a2a" stroke="#a52a2a" d="M-244.94521895368274 5.059092822248455e-16 L-244.51056516295154 7.927473036374057e-16 L-2.5000000000000138 -999.9999999999999 z"/>
<path fill="#a52a2a" stroke="#a52a2a" d="M188.66025403784437 18 L188.66025403784437 0 L189.9452189536827 0 L189.9452189536827 18 z"/>
<path fill="#a52a2a" stroke="#a52a2a" d="M-2.5000000000000266 -999.9999999999999 L-244.51056516295154 0 L-242.43144825477395 0 z"/>
<path fill="#a52a2a" stroke="#a52a2a" d="M-244.94521895368274 18 L-244.51056516295154 18 L-244.51056516295154 0 L-244.94521895368274 0 z"/>
<path fill="#a52a2a" stroke="#a52a2a" d="M185.8778525229247 0 L182.07911690817758 0 L2.499999999999999 -999.9999999999999 z"/>
<path fill="#a52a2a" stroke="#a52a2a" d="M2.4999999999999996 -999.9999999999999 L2.079116908177596 5.467799275500043e-34 L-2.0791169081775887 6.820763472438086e-34 z"/>
<path fill="#a52a2a" stroke="#a52a2a" d="M182.07911690817758 0 L182.07911690817758 18 L2.079116908177596 18 L2.079116908177596 0 z"/>
<path fill="#a52a2a" stroke="#a52a2a" d="M-244.9452189536827 0 L-189.9452189536827 0 L-189.9452189536827 18 L-244.9452189536827 18 z"/>
<path fill="#a52a2a" stroke="#a52a2a" d="M-185.8778525229247 18 L-185.8778525229247 0 L-182.07911690817755 0 L-182.07911690817755 18 z"/>
<path fill="#a52a2a" stroke="#a52a2a" d="M2.500000000000015 -999.9999999999999 L188.66025403784437 0 L185.8778525229247 0 z"/>
<path fill="#a52a2a" stroke="#a52a2a" d="M242.43144825477395 0 L242.43144825477395 18 L244.51056516295154 18 L244.51056516295154 0 z"/>
<path fill="#a52a2a" stroke="#a52a2a" d="M239.06736643075797 18 L239.06736643075797 0 L4.0673664307580015 0 L4.0673664307580015 18 z"/>
<path fill="#a52a2a" stroke="#a52a2a" d="M-4.067366430758009 18 L6.123233995736765e-16 18 L6.123233995736765e-16 0 L-4.067366430758009 0 z"/>
<path fill="#a52a2a" stroke="#a52a2a" d="M2.4999999999999996 -999.9999999999999 L182.07911690817758 0 L2.079116908177596 0 z"/>
<path fill="#a52a2a" stroke="#a52a2a" d="M4.0673664307580015 0 L6.123233995736765e-16 0 L6.123233995736765e-16 18 L4.0673664307580015 18 z"/>
<path fill="#a52a2a" stroke="#a52a2a" d="M6.123233995736765e-16 0 L4.0673664307580015 0 L2.4999999999999996 -999.9999999999999 z"/>
<path fill="#a52a2a" stroke="#a52a2a" d="M2.5000000000000155 -999.9999999999999 L244.94521895368274 0 L2.5000000000000155 -999.9999999999999 z"/>
<path fill="#a52a2a" stroke="#a52a2a" d="M2.4999999999999996 -999.9999999999998 L4.0673664307580015 0 L239.06736643075797 0 z"/>
<path fill="#a52a2a" stroke="#a52a2a" d="M189.9452189536827 0 L244.9452189536827 0 L244.9452189536827 18 L189.9452189536827 18 z"/>
<path fill="#a52a2a" stroke="#a52a2a" d="M-2.5000000000000155 -999.9999999999999 L-244.94521895368274 0 L-2.5000000000000155 -999.9999999999999 z"/>
<path fill="#a52a2a" stroke="#a52a2a" d="M-2.5 -999.9999999999999 L-4.067366430758009 0 L6.123233995736765e-16 0 z"/>
<path fill="#a52a2a" stroke="#a52a2a" d="M-2.499999999999993 -999.9999999999999 L-242.4314482547739 0 L-239.06736643075794 0 z"/>
<path fill="#a52a2a" stroke="#a52a2a" d="M-242.43144825477395 18 L-242.43144825477395 0 L-244.51056516295154 0 L-244.51056516295154 18 z"/>
<path fill="#a52a2a" stroke="#a52a2a" d="M-239.06736643075797 0 L-239.06736643075797 18 L-4.067366430758009 18 L-4.067366430758009 0 z"/>
<path fill="#a52a2a" stroke="#a52a2a" d="M2.5000000000000124 -999.9999999999999 L189.9452189536827 0 L188.66025403784437 0 z"/>
<path fill="#a52a2a" stroke="#a52a2a" d="M-2.5 -1000 L-2.5 -1000 L2.5 -1000 L2.5 -1000 z"/>
<path fill="#a52a2a" stroke="#a52a2a" d="M2.5 -999.9999999999999 L-2.079116908177589 0 L-2.5 -999.9999999999999 z"/>
<path fill="#a52a2a" stroke="#a52a2a" d="M-2.5 -999.9999999999999 L6.123233995736766e-16 0 L2.5 -999.9999999999999 z"/>
<path fill="#a52a2a" stroke="#a52a2a" d="M244.9452189536827 0 L189.9452189536827 0 L2.500000000000004 -999.9999999999999 z"/>
<path fill="#a52a2a" stroke="#a52a2a" d="M-185.87785252292474 18 L-182.07911690817758 18 L-2.079116908177589 18 L2.0791169081775966 18 L182.0791169081776 18 L185.87785252292474 18 L188.6602540378444 18 L189.94521895368274 18 L244.94521895368274 18 L244.51056516295154 18 L242.43144825477395 18 L239.067366430758 18 L4.067366430758002 18 L6.123233995736766e-16 18 L-4.0673664307580095 18 L-239.067366430758 18 L-242.43144825477395 18 L-244.51056516295154 18 L-244.94521895368274 18 L-189.94521895368274 18 L-188.66025403784437 18 z"/>
</svg>