<?xml version="1.0" encoding="UTF-8"?>
<!-- Generated by jsxcad -->
<!DOCTYPE svg PUBLIC "-//W3C//DTD SVG 1.1 Tiny//EN" "http://www.w3.org/Graphics/SVG/1.1/DTD/svg11-tiny.dtd">
<svg baseProfile="tiny" height="3205.000000000002mm" width="589.8904379073659mm" viewBox="-294.94521895368297 -1605.000000000001 589.8904379073659 3205.000000000002" version="1.1" stroke="black" stroke-width=".1" fill="none" xmlns="http://www.w3.org/2000/svg">
<path fill="#75dbf2" stroke="#75dbf2" d="M-3.4202014332566844 -600 L-2.0791169081775887 -300 L-2.0791169081775887 318 L-3.4202014332566844 618 z"/>
<path fill="#75dbf2" stroke="#75dbf2" d="M186.42787609686536 -599.9999999999999 L185.8778525229247 -299.99999999999994 L183.42020143325666 -599.9999999999999 z"/>
<path fill="#75dbf2" stroke="#75dbf2" d="M2.499999999999996 1604.9999999999998 L183.42020143325666 617.9999999999999 L186.42787609686536 617.9999999999999 z"/>
<path fill="#75dbf2" stroke="#75dbf2" d="M186.42787609686536 617.9999999999999 L183.42020143325666 617.9999999999999 L185.8778525229247 317.99999999999994 z"/>
<path fill="#75dbf2" stroke="#75dbf2" d="M292.43144825477395 -299.99999999999994 L294.51056516295154 -299.99999999999994 L243.6602540378444 -599.9999999999999 z"/>
<path fill="#75dbf2" stroke="#75dbf2" d="M2.5 -1599.9999999999995 L-2.5 -1599.9999999999995 L6.123233995736766e-16 -599.9999999999999 z"/>
<path fill="#75dbf2" stroke="#75dbf2" d="M2.5000000000000204 -1599.9999999999998 L189.84807753012208 -599.9999999999999 L188.6602540378444 -599.9999999999999 z"/>
<path fill="#75dbf2" stroke="#75dbf2" d="M188.6602540378444 -599.9999999999999 L189.84807753012208 -599.9999999999999 L293.66025403784437 -299.99999999999994 z"/>
<path fill="#75dbf2" stroke="#75dbf2" d="M2.5000000000000075 1604.9999999999998 L294.94521895368274 317.99999999999994 L244.84807753012208 617.9999999999999 z"/>
<path fill="#75dbf2" stroke="#75dbf2" d="M244.84807753012208 617.9999999999999 L294.94521895368274 317.99999999999994 L244.84807753012208 617.9999999999999 z"/>
<path fill="#75dbf2" stroke="#75dbf2" d="M244.84807753012208 -599.9999999999999 L244.84807753012208 -599.9999999999999 L294.94521895368274 -299.99999999999994 z"/>
<path fill="#75dbf2" stroke="#75dbf2" d="M3.4202014332566875 618 L2.079116908177596 318 L2.079116908177596 -300 L3.4202014332566875 -600 z"/>
<path fill="#75dbf2" stroke="#75dbf2" d="M2.5 -1599.9999999999995 L2.8327694488239896e-15 -599.9999999999999 L-2.5 -1599.9999999999995 z"/>
<path fill="#75dbf2" stroke="#75dbf2" d="M-2.4999999999999996 -1599.9999999999998 L2.821503833738114e-15 -599.9999999999999 L-3.420201433256684 -599.9999999999999 z"/>
<path fill="#75dbf2" stroke="#75dbf2" d="M-3.4202014332566844 617.9999999999999 L-2.0791169081775887 317.99999999999994 L2.8349136876780324e-15 617.9999999999999 z"/>
<path fill="#75dbf2" stroke="#75dbf2" d="M292.4314482547739 318 L292.4314482547739 -300 L289.06736643075794 -300 L289.06736643075794 318 z"/>
<path fill="#75dbf2" stroke="#75dbf2" d="M6.067626027962468e-16 -599.9999999999999 L-3.420201433256685 -599.9999999999999 L-284.99999999999994 -299.99999999999994 z"/>
<path fill="#75dbf2" stroke="#75dbf2" d="M294.51056516295154 318 L294.51056516295154 -300 L292.43144825477395 -300 L292.43144825477395 318 z"/>
<path fill="#75dbf2" stroke="#75dbf2" d="M-294.94521895368274 318 L-294.51056516295154 318 L-294.51056516295154 -300 L-294.94521895368274 -300 z"/>
<path fill="#75dbf2" stroke="#75dbf2" d="M2.5000000000000115 -1599.9999999999998 L294.9452189536827 -299.99999999999994 L293.66025403784437 -299.99999999999994 z"/>
<path fill="#75dbf2" stroke="#75dbf2" d="M2.50000000000002 1604.9999999999998 L188.6602540378444 617.9999999999999 L189.84807753012208 617.9999999999999 z"/>
<path fill="#75dbf2" stroke="#75dbf2" d="M189.84807753012208 617.9999999999999 L188.6602540378444 617.9999999999999 L293.6602540378443 317.99999999999994 z"/>
<path fill="#75dbf2" stroke="#75dbf2" d="M2.079116908177596 -299.99999999999994 L2.8306419413838196e-15 -599.9999999999999 L3.420201433256688 -599.9999999999999 z"/>
<path fill="#75dbf2" stroke="#75dbf2" d="M2.8368157111112926e-15 617.9999999999999 L2.079116908177596 317.99999999999994 L3.420201433256688 617.9999999999999 z"/>
<path fill="#75dbf2" stroke="#75dbf2" d="M2.5 -1599.9999999999998 L183.42020143325664 -599.9999999999999 L3.420201433256688 -599.9999999999999 z"/>
<path fill="#75dbf2" stroke="#75dbf2" d="M183.42020143325666 -600 L185.8778525229247 -300 L185.8778525229247 318 L183.42020143325666 618 z"/>
<path fill="#75dbf2" stroke="#75dbf2" d="M-2.5 1604.9999999999995 L-3.4202014332566844 617.9999999999999 L2.716556805064347e-15 617.9999999999999 z"/>
<path fill="#75dbf2" stroke="#75dbf2" d="M-2.0791169081775887 318 L-2.0791169081775887 -300 L2.8327694488239892e-15 -600 L2.8327694488239892e-15 618 z"/>
<path fill="#75dbf2" stroke="#75dbf2" d="M243.66025403784442 -599.9999999999999 L294.51056516295154 -299.99999999999994 L244.84807753012208 -599.9999999999999 z"/>
<path fill="#75dbf2" stroke="#75dbf2" d="M244.84807753012208 -599.9999999999999 L2.5000000000000075 -1599.9999999999998 L2.5000000000000075 -1599.9999999999998 L244.84807753012208 -599.9999999999999 z"/>
<path fill="#75dbf2" stroke="#75dbf2" d="M-2.5000000000000075 -1599.9999999999998 L-244.84807753012208 -599.9999999999999 L-244.84807753012208 -599.9999999999999 L-2.5000000000000075 -1599.9999999999998 z"/>
<path fill="#75dbf2" stroke="#75dbf2" d="M-243.6602540378444 -599.9999999999999 L-2.5000000000000497 -1599.9999999999998 L-244.84807753012208 -599.9999999999999 z"/>
<path fill="#75dbf2" stroke="#75dbf2" d="M2.4999999999999996 -1599.9999999999998 L6.591007988039569e-16 -599.9999999999999 L3.420201433256688 -599.9999999999999 z"/>
<path fill="#75dbf2" stroke="#75dbf2" d="M3.420201433256688 -599.9999999999999 L6.066572700781128e-16 -599.9999999999999 L284.99999999999994 -299.99999999999994 z"/>
<path fill="#75dbf2" stroke="#75dbf2" d="M-2.5 1604.9999999999998 L-3.4202014332566844 617.9999999999999 L-284.99999999999994 317.99999999999994 z"/>
<path fill="#75dbf2" stroke="#75dbf2" d="M-284.99999999999994 317.99999999999994 L-3.420201433256685 617.9999999999999 L6.140847823911443e-16 617.9999999999999 z"/>
<path fill="#75dbf2" stroke="#75dbf2" d="M6.244504938002777e-16 617.9999999999998 L3.420201433256688 617.9999999999998 L284.99999999999994 317.99999999999994 z"/>
<path fill="#75dbf2" stroke="#75dbf2" d="M284.9999999999999 317.99999999999994 L3.420201433256688 617.9999999999999 L2.5 1604.9999999999995 z"/>
<path fill="#75dbf2" stroke="#75dbf2" d="M292.4314482547739 317.99999999999994 L289.06736643075794 317.99999999999994 L241.42787609686533 617.9999999999999 z"/>
<path fill="#75dbf2" stroke="#75dbf2" d="M241.42787609686536 617.9999999999999 L289.06736643075794 317.99999999999994 L238.42020143325664 617.9999999999999 z"/>
<path fill="#75dbf2" stroke="#75dbf2" d="M294.51056516295154 318 L294.94521895368274 318 L294.94521895368274 -300 L294.51056516295154 -300 z"/>
<path fill="#75dbf2" stroke="#75dbf2" d="M244.84807753012208 617.9999999999999 L243.6602540378444 617.9999999999999 L2.5000000000000435 1604.9999999999998 z"/>
<path fill="#75dbf2" stroke="#75dbf2" d="M238.42020143325666 617.9999999999999 L289.06736643075794 317.99999999999994 L2.5000000000000004 1604.9999999999998 z"/>
<path fill="#75dbf2" stroke="#75dbf2" d="M241.42787609686536 617.9999999999999 L238.4202014332567 617.9999999999999 L2.500000000000011 1604.9999999999995 z"/>
<path fill="#75dbf2" stroke="#75dbf2" d="M-292.43144825477395 317.99999999999994 L-294.51056516295154 317.99999999999994 L-243.6602540378444 617.9999999999999 z"/>
<path fill="#75dbf2" stroke="#75dbf2" d="M2.5 -1600 L2.5 -1600 L-2.5 -1600 L-2.5 -1600 z"/>
<path fill="#75dbf2" stroke="#75dbf2" d="M-241.42787609686542 617.9999999999999 L-292.43144825477395 317.99999999999994 L-243.6602540378444 617.9999999999999 z"/>
<path fill="#75dbf2" stroke="#75dbf2" d="M-243.6602540378444 617.9999999999999 L-244.84807753012208 617.9999999999999 L-2.5000000000000435 1604.9999999999998 z"/>
<path fill="#75dbf2" stroke="#75dbf2" d="M2.5000000000000164 1604.9999999999998 L244.84807753012208 617.9999999999999 L244.84807753012208 617.9999999999999 L2.5000000000000164 1604.9999999999998 z"/>
<path fill="#75dbf2" stroke="#75dbf2" d="M293.6602540378443 -299.99999999999994 L189.84807753012205 -599.9999999999999 L2.500000000000009 -1599.9999999999998 z"/>
<path fill="#75dbf2" stroke="#75dbf2" d="M293.6602540378443 -300 L293.6602540378443 318 L188.66025403784437 618 L188.66025403784437 -600 z"/>
<path fill="#75dbf2" stroke="#75dbf2" d="M2.5000000000000364 1604.9999999999995 L189.84807753012208 617.9999999999999 L293.6602540378443 317.99999999999994 z"/>
<path fill="#75dbf2" stroke="#75dbf2" d="M2.5000000000000098 -1599.9999999999998 L188.66025403784437 -599.9999999999999 L186.42787609686536 -599.9999999999999 z"/>
<path fill="#75dbf2" stroke="#75dbf2" d="M2.8327694488239892e-15 618 L2.8327694488239892e-15 -600 L2.079116908177596 -300 L2.079116908177596 318 z"/>
<path fill="#75dbf2" stroke="#75dbf2" d="M2.4999999999999996 1604.9999999999998 L2.7907467328247776e-15 617.9999999999999 L3.420201433256688 617.9999999999999 z"/>
<path fill="#75dbf2" stroke="#75dbf2" d="M3.4202014332566875 617.9999999999999 L183.42020143325664 617.9999999999999 L2.5 1604.9999999999998 z"/>
<path fill="#75dbf2" stroke="#75dbf2" d="M2.4999999999999987 -1599.9999999999998 L284.99999999999994 -299.99999999999994 L289.06736643075794 -299.99999999999994 z"/>
<path fill="#75dbf2" stroke="#75dbf2" d="M293.6602540378443 318 L293.6602540378443 -300 L294.9452189536827 -300 L294.9452189536827 318 z"/>
<path fill="#75dbf2" stroke="#75dbf2" d="M241.4278760968654 -599.9999999999999 L243.6602540378444 -599.9999999999999 L2.500000000000026 -1599.9999999999998 z"/>
<path fill="#75dbf2" stroke="#75dbf2" d="M-2.4999999999999987 -1599.9999999999998 L-289.06736643075794 -299.99999999999994 L-284.99999999999994 -299.99999999999994 z"/>
<path fill="#75dbf2" stroke="#75dbf2" d="M-294.94521895368274 -299.99999999999994 L-294.51056516295154 -299.99999999999994 L-244.84807753012208 -599.9999999999999 z"/>
<path fill="#75dbf2" stroke="#75dbf2" d="M-241.4278760968654 -599.9999999999999 L-2.500000000000026 -1599.9999999999998 L-243.6602540378444 -599.9999999999999 z"/>
<path fill="#75dbf2" stroke="#75dbf2" d="M-292.4314482547739 -299.99999999999994 L-289.06736643075794 -299.99999999999994 L-241.42787609686533 -599.9999999999999 z"/>
<path fill="#75dbf2" stroke="#75dbf2" d="M-2.500000000000011 1604.9999999999995 L-238.4202014332567 617.9999999999999 L-241.42787609686536 617.9999999999999 z"/>
<path fill="#75dbf2" stroke="#75dbf2" d="M-241.42787609686536 617.9999999999999 L-238.42020143325664 617.9999999999999 L-289.06736643075794 317.99999999999994 z"/>
<path fill="#75dbf2" stroke="#75dbf2" d="M289.06736643075794 -300 L284.99999999999994 -300 L284.99999999999994 318 L289.06736643075794 318 z"/>
<path fill="#75dbf2" stroke="#75dbf2" d="M2.4999999999999996 1604.9999999999998 L3.420201433256688 617.9999999999999 L5.697404764158248e-16 617.9999999999999 z"/>
<path fill="#75dbf2" stroke="#75dbf2" d="M2.5000000000000777 1604.9999999999998 L243.6602540378444 617.9999999999999 L241.4278760968654 617.9999999999999 z"/>
<path fill="#75dbf2" stroke="#75dbf2" d="M241.42787609686542 617.9999999999999 L243.6602540378444 617.9999999999999 L292.43144825477395 317.99999999999994 z"/>
<path fill="#75dbf2" stroke="#75dbf2" d="M-243.6602540378444 617.9999999999999 L-294.51056516295154 317.99999999999994 L-244.84807753012208 617.9999999999999 z"/>
<path fill="#75dbf2" stroke="#75dbf2" d="M-244.84807753012208 617.9999999999998 L-294.51056516295154 317.99999999999994 L-294.94521895368274 317.99999999999994 z"/>
<path fill="#75dbf2" stroke="#75dbf2" d="M-2.499999999999999 1604.9999999999998 L-186.42787609686536 617.9999999999999 L-205.8778525229247 317.99999999999994 z"/>
<path fill="#75dbf2" stroke="#75dbf2" d="M-244.84807753012208 -599.9999999999999 L-294.51056516295154 -299.99999999999994 L-243.6602540378444 -599.9999999999999 z"/>
<path fill="#75dbf2" stroke="#75dbf2" d="M-289.06736643075794 318 L-284.99999999999994 318 L-284.99999999999994 -300 L-289.06736643075794 -300 z"/>
<path fill="#75dbf2" stroke="#75dbf2" d="M-188.6602540378444 -599.9999999999999 L-186.42787609686536 -599.9999999999999 L-208.66025403784434 -299.99999999999994 z"/>
<path fill="#75dbf2" stroke="#75dbf2" d="M-208.66025403784434 -299.99999999999994 L-186.42787609686536 -599.9999999999999 L-205.8778525229247 -299.99999999999994 z"/>
<path fill="#75dbf2" stroke="#75dbf2" d="M294.94521895368274 317.99999999999994 L294.51056516295154 317.99999999999994 L244.84807753012208 617.9999999999998 z"/>
<path fill="#75dbf2" stroke="#75dbf2" d="M243.66025403784442 617.9999999999999 L294.51056516295154 317.99999999999994 L292.43144825477395 317.99999999999994 z"/>
<path fill="#75dbf2" stroke="#75dbf2" d="M3.4202014332566875 618 L3.4202014332566875 -600 L183.42020143325666 -600 L183.42020143325666 618 z"/>
<path fill="#75dbf2" stroke="#75dbf2" d="M186.42787609686536 -600 L186.42787609686536 618 L185.8778525229247 318 L185.8778525229247 -300 z"/>
<path fill="#75dbf2" stroke="#75dbf2" d="M-243.66025403784442 -599.9999999999999 L-292.43144825477395 -299.99999999999994 L-241.4278760968654 -599.9999999999999 z"/>
<path fill="#75dbf2" stroke="#75dbf2" d="M3.420201433256688 -599.9999999999999 L284.99999999999994 -299.99999999999994 L2.4999999999999996 -1599.9999999999998 z"/>
<path fill="#75dbf2" stroke="#75dbf2" d="M-2.499999999999999 1604.9999999999998 L-284.99999999999994 317.99999999999994 L-289.06736643075794 317.99999999999994 z"/>
<path fill="#75dbf2" stroke="#75dbf2" d="M284.99999999999994 -300 L6.123233995736765e-16 -600 L6.123233995736765e-16 618 L284.99999999999994 318 z"/>
<path fill="#75dbf2" stroke="#75dbf2" d="M-292.4314482547739 -300 L-292.4314482547739 318 L-289.06736643075794 318 L-289.06736643075794 -300 z"/>
<path fill="#75dbf2" stroke="#75dbf2" d="M2.5 1605 L2.5 1605 L-2.5 1605 L-2.5 1605 z"/>
<path fill="#75dbf2" stroke="#75dbf2" d="M-294.51056516295154 -300 L-294.51056516295154 318 L-292.43144825477395 318 L-292.43144825477395 -300 z"/>
<path fill="#75dbf2" stroke="#75dbf2" d="M-2.50000000000002 1604.9999999999998 L-189.84807753012208 617.9999999999999 L-188.6602540378444 617.9999999999999 z"/>
<path fill="#75dbf2" stroke="#75dbf2" d="M-188.6602540378444 617.9999999999999 L-189.84807753012208 617.9999999999999 L-293.6602540378443 317.99999999999994 z"/>
<path fill="#75dbf2" stroke="#75dbf2" d="M-188.6602540378444 617.9999999999999 L-186.4278760968654 617.9999999999999 L-2.5000000000000244 1604.9999999999995 z"/>
<path fill="#75dbf2" stroke="#75dbf2" d="M-294.9452189536827 -299.99999999999994 L-244.84807753012208 -599.9999999999999 L-2.5000000000000204 -1599.9999999999998 z"/>
<path fill="#75dbf2" stroke="#75dbf2" d="M-3.4202014332566844 -599.9999999999999 L-2.5 -1599.9999999999995 L-284.99999999999994 -299.99999999999994 z"/>
<path fill="#75dbf2" stroke="#75dbf2" d="M-294.51056516295154 -299.99999999999994 L-292.43144825477395 -299.99999999999994 L-243.6602540378444 -599.9999999999999 z"/>
<path fill="#75dbf2" stroke="#75dbf2" d="M6.123233995736765e-16 -600 L-284.99999999999994 -300 L-284.99999999999994 318 L6.123233995736765e-16 618 z"/>
<path fill="#75dbf2" stroke="#75dbf2" d="M-2.5 1604.9999999999998 L-205.8778525229247 317.99999999999994 L-202.07911690817755 317.99999999999994 z"/>
<path fill="#75dbf2" stroke="#75dbf2" d="M-293.66025403784437 -299.99999999999994 L-189.84807753012208 -599.9999999999999 L-188.6602540378444 -599.9999999999999 z"/>
<path fill="#75dbf2" stroke="#75dbf2" d="M-188.6602540378444 -599.9999999999999 L-189.84807753012208 -599.9999999999999 L-2.5000000000000204 -1599.9999999999998 z"/>
<path fill="#75dbf2" stroke="#75dbf2" d="M243.6602540378444 -599.9999999999999 L244.84807753012208 -599.9999999999999 L2.5000000000000497 -1599.9999999999998 z"/>
<path fill="#75dbf2" stroke="#75dbf2" d="M241.4278760968654 -599.9999999999999 L292.43144825477395 -299.99999999999994 L243.66025403784442 -599.9999999999999 z"/>
<path fill="#75dbf2" stroke="#75dbf2" d="M188.66025403784437 618 L186.42787609686536 618 L186.42787609686536 -600 L188.66025403784437 -600 z"/>
<path fill="#75dbf2" stroke="#75dbf2" d="M293.66025403784437 317.99999999999994 L294.9452189536827 317.99999999999994 L2.5000000000000266 1604.9999999999998 z"/>
<path fill="#75dbf2" stroke="#75dbf2" d="M-289.06736643075794 317.99999999999994 L-238.42020143325666 617.9999999999999 L-2.5000000000000004 1604.9999999999998 z"/>
<path fill="#75dbf2" stroke="#75dbf2" d="M-289.06736643075794 317.99999999999994 L-292.4314482547739 317.99999999999994 L-241.42787609686533 617.9999999999999 z"/>
<path fill="#75dbf2" stroke="#75dbf2" d="M2.499999999999999 1604.9999999999998 L289.06736643075794 317.99999999999994 L284.99999999999994 317.99999999999994 z"/>
<path fill="#75dbf2" stroke="#75dbf2" d="M244.84807753012208 617.9999999999999 L294.51056516295154 317.99999999999994 L243.6602540378444 617.9999999999999 z"/>
<path fill="#75dbf2" stroke="#75dbf2" d="M-244.84807753012208 617.9999999999999 L-244.84807753012208 617.9999999999999 L-294.94521895368274 317.99999999999994 z"/>
<path fill="#75dbf2" stroke="#75dbf2" d="M-244.84807753012208 617.9999999999999 L-2.5000000000000013 1604.9999999999998 L-2.5000000000000013 1604.9999999999998 L-244.84807753012208 617.9999999999999 z"/>
<path fill="#75dbf2" stroke="#75dbf2" d="M-186.42787609686536 617.9999999999999 L-208.66025403784434 317.99999999999994 L-205.8778525229247 317.99999999999994 z"/>
<path fill="#75dbf2" stroke="#75dbf2" d="M-293.6602540378443 317.99999999999994 L-189.84807753012208 617.9999999999999 L-2.5000000000000364 1604.9999999999995 z"/>
<path fill="#75dbf2" stroke="#75dbf2" d="M-244.84807753012208 -599.9999999999999 L-244.84807753012208 -599.9999999999999 L-294.94521895368274 -299.99999999999994 z"/>
<path fill="#75dbf2" stroke="#75dbf2" d="M-241.42787609686536 -599.9999999999999 L-289.06736643075794 -299.99999999999994 L-2.49999999999999 -1599.9999999999998 z"/>
<path fill="#75dbf2" stroke="#75dbf2" d="M-205.8778525229247 -299.99999999999994 L-186.42787609686536 -599.9999999999999 L-2.500000000000002 -1599.9999999999998 z"/>
<path fill="#75dbf2" stroke="#75dbf2" d="M-188.66025403784437 617.9999999999999 L-208.66025403784434 317.99999999999994 L-186.42787609686536 617.9999999999999 z"/>
<path fill="#75dbf2" stroke="#75dbf2" d="M186.42787609686533 -599.9999999999999 L183.42020143325666 -599.9999999999999 L2.499999999999997 -1599.9999999999998 z"/>
<path fill="#75dbf2" stroke="#75dbf2" d="M3.420201433256688 -599.9999999999999 L2.735140855981343e-15 -599.9999999999999 L2.4999999999999996 -1599.9999999999998 z"/>
<path fill="#75dbf2" stroke="#75dbf2" d="M-202.07911690817755 317.99999999999994 L-3.420201433256685 617.9999999999999 L-2.5000000000000004 1604.9999999999995 z"/>
<path fill="#75dbf2" stroke="#75dbf2" d="M289.06736643075794 -299.99999999999994 L241.42787609686536 -599.9999999999999 L2.49999999999999 -1599.9999999999998 z"/>
<path fill="#75dbf2" stroke="#75dbf2" d="M289.06736643075794 -299.99999999999994 L292.4314482547739 -299.99999999999994 L241.42787609686533 -599.9999999999999 z"/>
<path fill="#75dbf2" stroke="#75dbf2" d="M-294.9452189536827 317.99999999999994 L-293.6602540378443 317.99999999999994 L-2.500000000000014 1604.9999999999998 z"/>
<path fill="#75dbf2" stroke="#75dbf2" d="M-205.8778525229247 318 L-208.66025403784434 318 L-208.66025403784434 -300 L-205.8778525229247 -300 z"/>
<path fill="#75dbf2" stroke="#75dbf2" d="M5.481031932689222e-16 -599.9999999999999 L-2.5 -1599.9999999999998 L-3.420201433256685 -599.9999999999999 z"/>
<path fill="#75dbf2" stroke="#75dbf2" d="M7.509785282917197e-16 617.9999999999999 L-3.420201433256685 617.9999999999999 L-2.4999999999999996 1604.9999999999998 z"/>
<path fill="#75dbf2" stroke="#75dbf2" d="M-208.66025403784434 -300 L-208.66025403784434 318 L-293.6602540378443 318 L-293.6602540378443 -300 z"/>
<path fill="#75dbf2" stroke="#75dbf2" d="M-3.4202014332566844 -599.9999999999999 L-202.07911690817755 -299.99999999999994 L-2.5000000000000004 -1599.9999999999995 z"/>
<path fill="#75dbf2" stroke="#75dbf2" d="M-241.4278760968654 617.9999999999999 L-243.6602540378444 617.9999999999999 L-2.5000000000000777 1604.9999999999998 z"/>
<path fill="#75dbf2" stroke="#75dbf2" d="M-2.500000000000023 -1599.9999999999998 L-186.42787609686536 -599.9999999999999 L-188.66025403784437 -599.9999999999999 z"/>
<path fill="#75dbf2" stroke="#75dbf2" d="M-202.07911690817755 -299.99999999999994 L-205.8778525229247 -299.99999999999994 L-2.4999999999999996 -1599.9999999999998 z"/>
<path fill="#75dbf2" stroke="#75dbf2" d="M-3.4202014332566844 -600 L-3.4202014332566844 618 L-202.07911690817755 318 L-202.07911690817755 -300 z"/>
<path fill="#75dbf2" stroke="#75dbf2" d="M244.84807753012208 -599.9999999999999 L294.51056516295154 -299.99999999999994 L294.94521895368274 -299.99999999999994 z"/>
<path fill="#75dbf2" stroke="#75dbf2" d="M2.837195497386301e-15 -599.9999999999999 L-2.0791169081775887 -299.99999999999994 L-3.4202014332566844 -599.9999999999999 z"/>
<path fill="#75dbf2" stroke="#75dbf2" d="M-2.500000000000009 -1599.9999999999998 L-189.84807753012205 -599.9999999999999 L-293.6602540378443 -299.99999999999994 z"/>
<path fill="#75dbf2" stroke="#75dbf2" d="M-2.5 1604.9999999999998 L2.5 1604.9999999999998 L6.123233995736766e-16 617.9999999999999 z"/>
<path fill="#75dbf2" stroke="#75dbf2" d="M244.84807753012208 -599.9999999999999 L294.94521895368274 -299.99999999999994 L2.50000000000005 -1599.9999999999995 z"/>
<path fill="#75dbf2" stroke="#75dbf2" d="M-293.6602540378443 317.99999999999994 L-208.66025403784434 317.99999999999994 L-188.66025403784437 617.9999999999999 z"/>
<path fill="#75dbf2" stroke="#75dbf2" d="M-2.5 1604.9999999999998 L2.8327694488239896e-15 617.9999999999999 L2.5 1604.9999999999998 z"/>
<path fill="#75dbf2" stroke="#75dbf2" d="M-205.8778525229247 -300 L-202.07911690817755 -300 L-202.07911690817755 318 L-205.8778525229247 318 z"/>
<path fill="#75dbf2" stroke="#75dbf2" d="M186.4278760968654 617.9999999999999 L188.66025403784437 617.9999999999999 L2.5000000000000173 1604.9999999999998 z"/>
<path fill="#75dbf2" stroke="#75dbf2" d="M-2.500000000000011 -1599.9999999999998 L-293.6602540378443 -299.99999999999994 L-294.9452189536827 -299.99999999999994 z"/>
<path fill="#75dbf2" stroke="#75dbf2" d="M-208.66025403784434 -299.99999999999994 L-293.6602540378443 -299.99999999999994 L-188.66025403784437 -599.9999999999999 z"/>
<path fill="#75dbf2" stroke="#75dbf2" d="M-2.500000000000029 1604.9999999999998 L-244.84807753012208 617.9999999999999 L-294.94521895368274 317.99999999999994 z"/>
<path fill="#75dbf2" stroke="#75dbf2" d="M-294.9452189536827 -300 L-293.6602540378443 -300 L-293.6602540378443 318 L-294.9452189536827 318 z"/>
</svg>